# xmcd
#
# Track frame offsets:
#	150
#	15570
#	31464
#	41798
#	53409
#	70620
#	97980
#	120574
#	145324
#	166829
#	178522
#
# Disc length: 2592 seconds
#
# Revision: 1
# Processed by: cddbd v1.5PL3 Copyright (c) Steve Scherf et al.
# Submitted via: EasyCDDAExtractor 6.2.0.3
#
DISCID=850a1e0b
DTITLE=Bubbi - Blús fyrir Rikka [CD2)
DYEAR=1986
DGENRE=
TTITLE0=Í spegli Helgu
TTITLE1=Syndandi í hafi móðurlífsins
TTITLE2=Blús fyrir Rikka
TTITLE3=Haustið á liti
TTITLE4=Systir minna auðmýktu bræðra
TTITLE5=Segulstöðvablús
TTITLE6=Meskalín
TTITLE7=Rómeó og Júlía
TTITLE8=Rock Island Line
TTITLE9=Silver City Bound
TTITLE10=Let us walk together
EXTD=
EXTT0=
EXTT1=
EXTT2=
EXTT3=
EXTT4=
EXTT5=
EXTT6=
EXTT7=
EXTT8=
EXTT9=
EXTT10=
PLAYORDER=
